<svg id="SvgjsSvg1001" width="288" height="288" xmlns="http://www.w3.org/2000/svg" version="1.1" xmlns:xlink="http://www.w3.org/1999/xlink" xmlns:svgjs="http://svgjs.com/svgjs"><g id="SvgjsG1011" fill="#7e4b5f" transform="matrix(0.9167,0,0,0.9167,11.995200000000011,11.995200000000011)"><circle id="SvgjsCircle1012" r="144" cx="144" cy="144"></circle><rect id="SvgjsRect1013" width="164" height="164" x="124" y="124" rx="20" ry="20"></rect></g><defs id="SvgjsDefs1002"></defs><g id="SvgjsG1008" transform="matrix(0.4652,0,0,0.4652,77.01104291229248,77.0112)"><svg xmlns="http://www.w3.org/2000/svg" width="288" height="288" enable-background="new 0 0 512 512" viewBox="0 0 512 512"><path d="m263.961 512c188.706 0 215.53-170.501 218.774-175.814l-123.75-37.764c-4.301 9.081-7.124 102.466-96.006 102.466-68.613 0-103.403-49.702-103.403-147.744 0-94.248 35.449-142.031 105.381-142.031 83.037 0 88.405 77.18 90.483 80.845l126.401-29.077c-3.259-4.975-27.575-162.881-211.962-162.881-148.418 0-240.615 100.287-240.615 260.116 0 150.059 94.321 251.884 234.697 251.884z" fill="#ffffff" class="color000 svgShape"></path></svg></g></svg>